<svg width="26" height="29" viewBox="0 0 26 29" fill="none" xmlns="http://www.w3.org/2000/svg">
<g clip-path="url(#clip0_1_1337)" filter="url(#filter0_d_1_1337)">
<path d="M10 3H5.5C5.10218 3 4.72064 3.15804 4.43934 3.43934C4.15804 3.72064 4 4.10218 4 4.5V9C4 9.39782 4.15804 9.77936 4.43934 10.0607C4.72064 10.342 5.10218 10.5 5.5 10.5H10C10.3978 10.5 10.7794 10.342 11.0607 10.0607C11.342 9.77936 11.5 9.39782 11.5 9V4.5C11.5 4.10218 11.342 3.72064 11.0607 3.43934C10.7794 3.15804 10.3978 3 10 3ZM10 9H5.5V4.5H10V9Z" fill="#376AED"/>
<path d="M20.5 3H16C15.6022 3 15.2206 3.15804 14.9393 3.43934C14.658 3.72064 14.5 4.10218 14.5 4.5V9C14.5 9.39782 14.658 9.77936 14.9393 10.0607C15.2206 10.342 15.6022 10.5 16 10.5H20.5C20.8978 10.5 21.2794 10.342 21.5607 10.0607C21.842 9.77936 22 9.39782 22 9V4.5C22 4.10218 21.842 3.72064 21.5607 3.43934C21.2794 3.15804 20.8978 3 20.5 3ZM20.5 9H16V4.5H20.5V9Z" fill="#376AED"/>
<path d="M10 13.5H5.5C5.10218 13.5 4.72064 13.658 4.43934 13.9393C4.15804 14.2206 4 14.6022 4 15V19.5C4 19.8978 4.15804 20.2794 4.43934 20.5607C4.72064 20.842 5.10218 21 5.5 21H10C10.3978 21 10.7794 20.842 11.0607 20.5607C11.342 20.2794 11.5 19.8978 11.5 19.5V15C11.5 14.6022 11.342 14.2206 11.0607 13.9393C10.7794 13.658 10.3978 13.5 10 13.5ZM10 19.5H5.5V15H10V19.5Z" fill="#376AED"/>
<path d="M20.5 13.5H16C15.6022 13.5 15.2206 13.658 14.9393 13.9393C14.658 14.2206 14.5 14.6022 14.5 15V19.5C14.5 19.8978 14.658 20.2794 14.9393 20.5607C15.2206 20.842 15.6022 21 16 21H20.5C20.8978 21 21.2794 20.842 21.5607 20.5607C21.842 20.2794 22 19.8978 22 19.5V15C22 14.6022 21.842 14.2206 21.5607 13.9393C21.2794 13.658 20.8978 13.5 20.5 13.5ZM20.5 19.5H16V15H20.5V19.5Z" fill="#376AED"/>
</g>
<defs>
<filter id="filter0_d_1_1337" x="-3" y="0" width="32" height="32" filterUnits="userSpaceOnUse" color-interpolation-filters="sRGB">
<feFlood flood-opacity="0" result="BackgroundImageFix"/>
<feColorMatrix in="SourceAlpha" type="matrix" values="0 0 0 0 0 0 0 0 0 0 0 0 0 0 0 0 0 0 127 0" result="hardAlpha"/>
<feOffset dy="4"/>
<feGaussianBlur stdDeviation="2"/>
<feComposite in2="hardAlpha" operator="out"/>
<feColorMatrix type="matrix" values="0 0 0 0 0 0 0 0 0 0 0 0 0 0 0 0 0 0 0.25 0"/>
<feBlend mode="normal" in2="BackgroundImageFix" result="effect1_dropShadow_1_1337"/>
<feBlend mode="normal" in="SourceGraphic" in2="effect1_dropShadow_1_1337" result="shape"/>
</filter>
<clipPath id="clip0_1_1337">
<rect width="24" height="24" fill="white" transform="translate(1)"/>
</clipPath>
</defs>
</svg>
